<svg data-name="Layer 1" xmlns="http://www.w3.org/2000/svg" viewBox="0 0 168.67391 155.09325"><path d="M113.35 95.593a2.289 2.289 0 0 1-1.64-.711l-5.303-5.415-5.303 5.415a2.237 2.237 0 0 1-2.484.543 2.692 2.692 0 0 1-1.592-2.551V71.549a1.35 1.35 0 0 1 2.7 0v20.877l5.713-5.833a1.395 1.395 0 0 1 1.93 0l5.691 5.81.022-17.523a1.35 1.35 0 1 1 2.7 0v17.994a2.692 2.692 0 0 1-1.59 2.551 2.218 2.218 0 0 1-.845.168z" fill="#2b73ba"/><path d="M142.524 73.623l-15.058-26.081a1.35 1.35 0 0 0-1.17-.675h-82.59a1.35 1.35 0 0 0-1.17.675L27.477 73.623a1.35 1.35 0 0 0 1.17 2.025h13.709v40.195a1.35 1.35 0 0 0 1.35 1.35h82.592a1.35 1.35 0 0 0 1.35-1.35V75.648h13.708a1.35 1.35 0 0 0 1.17-2.025zm-98.04-24.056h38.177L69.163 72.948H30.985zm.571 26.081h24.887a1.35 1.35 0 0 0 1.17-.675L83.65 53.256v61.237H45.055zm79.892 38.845H86.35V53.255l12.54 21.718a1.35 1.35 0 0 0 1.17.675h24.887zm1.35-41.545h-25.458l-13.5-23.381h38.178l13.499 23.381z" fill="#262626"/></svg>